<svg xmlns="http://www.w3.org/2000/svg" width="256" height="256">
  <rect width="256" height="256" fill="#e8ecf2"/>
  <g fill="#c7cfdb">
    <circle cx="16" cy="16" r="1.5"/><circle cx="48" cy="16" r="1.5"/><circle cx="80" cy="16" r="1.5"/><circle cx="112" cy="16" r="1.5"/><circle cx="144" cy="16" r="1.5"/><circle cx="176" cy="16" r="1.5"/><circle cx="208" cy="16" r="1.5"/><circle cx="240" cy="16" r="1.5"/>
    <circle cx="16" cy="48" r="1.5"/><circle cx="48" cy="48" r="1.5"/><circle cx="80" cy="48" r="1.5"/><circle cx="112" cy="48" r="1.5"/><circle cx="144" cy="48" r="1.5"/><circle cx="176" cy="48" r="1.5"/><circle cx="208" cy="48" r="1.5"/><circle cx="240" cy="48" r="1.5"/>
    <circle cx="16" cy="80" r="1.5"/><circle cx="48" cy="80" r="1.5"/><circle cx="80" cy="80" r="1.5"/><circle cx="112" cy="80" r="1.5"/><circle cx="144" cy="80" r="1.5"/><circle cx="176" cy="80" r="1.5"/><circle cx="208" cy="80" r="1.5"/><circle cx="240" cy="80" r="1.5"/>
    <circle cx="16" cy="112" r="1.5"/><circle cx="48" cy="112" r="1.5"/><circle cx="80" cy="112" r="1.5"/><circle cx="112" cy="112" r="1.5"/><circle cx="144" cy="112" r="1.5"/><circle cx="176" cy="112" r="1.5"/><circle cx="208" cy="112" r="1.5"/><circle cx="240" cy="112" r="1.5"/>
    <circle cx="16" cy="144" r="1.5"/><circle cx="48" cy="144" r="1.5"/><circle cx="80" cy="144" r="1.5"/><circle cx="112" cy="144" r="1.5"/><circle cx="144" cy="144" r="1.5"/><circle cx="176" cy="144" r="1.5"/><circle cx="208" cy="144" r="1.5"/><circle cx="240" cy="144" r="1.5"/>
    <circle cx="16" cy="176" r="1.5"/><circle cx="48" cy="176" r="1.5"/><circle cx="80" cy="176" r="1.5"/><circle cx="112" cy="176" r="1.5"/><circle cx="144" cy="176" r="1.5"/><circle cx="176" cy="176" r="1.5"/><circle cx="208" cy="176" r="1.5"/><circle cx="240" cy="176" r="1.5"/>
    <circle cx="16" cy="208" r="1.5"/><circle cx="48" cy="208" r="1.5"/><circle cx="80" cy="208" r="1.5"/><circle cx="112" cy="208" r="1.5"/><circle cx="144" cy="208" r="1.5"/><circle cx="176" cy="208" r="1.5"/><circle cx="208" cy="208" r="1.5"/><circle cx="240" cy="208" r="1.5"/>
    <circle cx="16" cy="240" r="1.5"/><circle cx="48" cy="240" r="1.5"/><circle cx="80" cy="240" r="1.5"/><circle cx="112" cy="240" r="1.5"/><circle cx="144" cy="240" r="1.5"/><circle cx="176" cy="240" r="1.5"/><circle cx="208" cy="240" r="1.5"/><circle cx="240" cy="240" r="1.5"/>
  </g>
</svg>
